<?xml version="1.0" encoding="UTF-8"?>
<svg width="85px" height="99px" viewBox="0 0 85 99" version="1.1" xmlns="http://www.w3.org/2000/svg" xmlns:xlink="http://www.w3.org/1999/xlink">
    <title>logo</title>
    <defs>
        <filter id="filter-1">
            <feColorMatrix in="SourceGraphic" type="matrix" values="0 0 0 0 1.000000 0 0 0 0 1.000000 0 0 0 0 1.000000 0 0 0 1.000000 0"></feColorMatrix>
        </filter>
    </defs>
    <g id="Page-1" stroke="none" stroke-width="1" fill="none" fill-rule="evenodd">
        <g id="logo" transform="translate(-185.000000, -46.000000)" filter="url(#filter-1)">
            <g transform="translate(185.000000, 46.000000)">
                <g id="Path-0" transform="translate(5.124567, 0.000000)" fill="#202020">
                    <path d="M23.5888233,0.318037256 L36.5742844,0.318037256 L33.0504316,7.79191277 L30.757383,8.22444343 C29.4979555,8.459791 27.2462517,9.10540663 25.7610177,9.65879146 C24.2726034,10.2089959 22.0208996,11.3412085 20.7519309,12.1681054 C19.4829623,12.9981826 18.3380282,13.6024534 18.2076329,13.5102226 C18.0772376,13.4211722 19.2348932,10.4157201 20.7805543,6.83144025 L23.5888233,0.318037256 Z M37.8591549,0.318037256 L50.7269423,0.302135393 L53.5065879,6.75193094 C55.0331667,10.2980463 56.1781009,13.3162199 56.050886,13.462517 C55.9204907,13.6088142 55.0999546,13.2239891 54.2253521,12.6133576 C53.3507497,11.9995457 51.5601999,10.9850068 50.2498864,10.3584734 C48.9363925,9.73194003 46.4111767,8.89868242 41.40209,7.79191277 L40.3748296,5.7246706 C39.8087233,4.58609723 39.0136302,2.90686052 38.6033621,1.98773285 L37.8591549,0.318037256 Z M37.2421627,14.0445252 C37.4139028,14.1049523 40.6260791,20.6278964 44.3789187,28.5438437 C48.1317583,36.459791 51.1308496,43.0781463 51.0449796,43.2530668 C50.9559291,43.4279873 47.8073603,41.8537029 37.2103589,35.9382099 L30.6110859,39.5860972 C26.9822808,41.5960927 23.8337119,43.2403453 23.6142662,43.2435257 C23.3948205,43.2498864 23.2389823,43.1385734 23.2644253,42.998637 C23.2898682,42.861881 25.6656065,37.7446615 28.5406633,31.6288051 C31.4157201,25.516129 34.4815993,19.0345298 35.349841,17.2248978 C36.2180827,15.4152658 37.0704225,13.9840981 37.2421627,14.0445252 Z M46.516129,14.6615175 C47.4320763,15.0177192 49.1017719,15.9082235 50.2212631,16.6397092 C51.3439346,17.3711949 52.9563835,18.754657 53.8055429,19.7183099 C54.6547024,20.6787824 55.7646524,22.2530668 56.2766924,23.2167197 C56.785552,24.1771922 57.5138573,26.1108587 57.895502,27.5102226 C58.4902317,29.6887778 58.5665607,30.6238074 58.4393458,34.0299864 C58.3566561,36.2149023 58.1244889,38.542935 57.9273058,39.1980918 C57.7269423,39.8532485 57.3866424,40.3875511 57.1671967,40.3843849 C56.947751,40.3811904 54.0186279,34.5483871 50.6569741,27.4243526 C47.2953203,20.300318 44.6110859,14.3689232 44.6969559,14.2417083 C44.7796456,14.1144934 45.6001817,14.3053158 46.516129,14.6615175 Z M29.0018174,14.3116765 C29.3166742,14.3116765 29.571104,14.4897774 29.56486,14.7092231 C29.5583826,14.9286688 26.8709677,20.7582917 23.5888233,27.6692413 C19.9536574,35.3275784 17.4507042,40.2317129 17.1803726,40.2317129 C16.9227624,40.2317129 16.5538392,39.5733757 16.2930486,38.6415266 C16.0417992,37.7414811 15.8382553,35.4675148 15.8223535,33.3939119 C15.8000909,30.8050886 15.9591095,29.1322126 16.3566561,27.6692413 C16.6683326,26.5306679 17.4252612,24.6001817 18.0422535,23.3757383 C18.7991822,21.8714221 19.8995911,20.4211722 21.4293503,18.9104952 C22.9781917,17.3775557 24.4411631,16.296229 26.0599727,15.4915947 C27.3607451,14.8427987 28.6837801,14.3116765 29.0018174,14.3116765 Z M65.2739664,34.3480236 C65.4616084,34.3480236 67.5956383,39.105861 74.4207179,55.4975011 L74.4207179,65.1976374 L54.0663335,65.1976374 L52.6351658,60.8246252 C51.8496138,58.4202635 51.2071786,56.3084961 51.2071786,56.1335756 C51.2103589,55.9586552 52.1040436,55.2462517 53.1949114,54.5465697 C54.2857792,53.8500682 55.3575647,53.242617 55.5770104,53.1949114 C55.7964562,53.1503862 57.4407088,53.9200363 59.2344389,54.9091322 C61.028169,55.8982281 63.1240345,57.0781463 65.2930486,58.3598364 L64.8000909,57.246706 C64.5297592,56.6328941 63.4229896,54.2730577 60.3666515,47.864607 L61.6483417,45.4793276 C62.3543844,44.1658337 63.298955,41.8059973 63.7505679,40.2317129 C64.2053612,38.6574284 64.571104,36.9050432 64.5679237,36.3357565 C64.5647433,35.7664698 64.6442526,35.0858701 64.7460245,34.8250795 C64.8509768,34.5611086 65.0863244,34.3480236 65.2739664,34.3480236 Z M9.24216265,34.6660609 C9.43934575,34.6660609 9.67151295,35.3466606 9.75738301,36.1767378 C9.84007269,37.0068151 10.1867333,38.7242163 10.5206724,39.9931849 C10.8577919,41.2621536 11.5511131,43.1926397 12.0663335,44.2866879 C12.5783735,45.380736 13.2303498,46.6306224 13.5165834,47.0695139 C14.0190822,47.8423444 13.9650159,48.0109041 11.6210813,52.9532031 C10.2916856,55.7519309 9.24534303,58.0608814 9.29304861,58.083144 C9.3407542,58.1054066 11.3857338,56.998637 13.8346206,55.624716 C16.2835075,54.2476147 18.4652431,53.1217628 18.6846888,53.1185825 C18.9041345,53.1154021 19.9059518,53.6878692 20.9109496,54.3939119 C21.9159473,55.0967742 22.8668787,55.7042254 23.0227169,55.7455702 C23.1785552,55.7837347 22.6060881,57.9273058 20.1953657,65.2008178 L-1.77635684e-15,65.1976374 L0.0826896865,55.3925488 L4.04225352,46.0645161 C6.22080872,40.9313948 8.19900045,36.2689687 8.44070877,35.699682 C8.68241708,35.1303953 9.04179918,34.6660609 9.24216265,34.6660609 Z M37.0513403,42.6297138 C37.0513403,42.6138119 39.840527,44.1467515 43.2530668,46.0358928 C46.9391186,48.0808723 49.4547933,49.6646979 49.4547933,49.9413903 C49.4547933,50.1990005 48.6660609,50.8032712 47.7055884,51.2866879 C46.7419355,51.7732849 45.1676511,52.3870968 44.2071786,52.6574284 C43.2435257,52.9245797 40.6674239,53.2298955 38.482508,53.3316674 C35.4325307,53.4747842 33.8773285,53.3920945 31.8037256,52.9818264 C30.3153112,52.6860518 28.0636075,51.9513857 26.7946388,51.3471149 C25.5256701,50.7428442 24.5238528,50.1067697 24.568378,49.9286688 C24.6129032,49.7537483 27.4370741,48.0458882 30.8496138,46.1344843 C34.2589732,44.2262608 37.0513403,42.648796 37.0513403,42.6297138 Z"></path>
                </g>
                <g id="Group" transform="translate(0.000000, 69.968196)" fill="#202020">
                    <path d="M10.8969433,0.159018628 L13.2599601,5.64516129 C14.8883108,9.42980463 15.6197965,11.5256701 15.6197965,13.675602 L11.1672749,13.675602 L10.5312004,11.4493412 L5.12456709,11.4493412 L4.48849257,13.675602 L0.0359709939,13.675602 L0.000986895745,12.4320763 C-0.0276364573,11.5383916 0.563912838,9.81144934 2.09685241,6.30985915 C3.27040989,3.62562472 4.36127767,1.10358928 4.52347667,0.702862335 C4.7048757,0.253487472 4.82882407,0.0833495375 6.51381227,0.0677494247 L6.98252076,0.0670655792 C7.8805715,0.0716260036 9.13383897,0.106248002 10.8969433,0.159018628 Z M7.79926041,4.1376647 L7.2554167,5.64516129 C6.95646168,6.47523853 6.71157299,7.26397092 6.71475337,7.3943662 C6.71475337,7.52476147 7.21407186,7.63289414 7.82788376,7.63289414 C8.43851529,7.63289414 8.94101416,7.52476147 8.94101416,7.3943662 C8.94101416,7.26397092 8.68340398,6.47523853 8.3685471,5.64516129 L7.79926041,4.1376647 Z" id="Combined-Shape"></path>
                    <polygon id="Path-0-path" points="18.4821318 0 22.9346534 0 22.9346534 9.54111767 30.8855848 9.54111767 30.8855848 13.675602 18.4821318 13.675602"></polygon>
                    <path d="M47.0259755,0.766469786 C47.8266584,1.46856112 47.8948305,1.60934153 47.9001528,4.36310937 L47.9001528,5.49604556 C47.8948305,8.2498134 47.8266584,8.39059381 47.0259755,9.09268514 C46.9552397,9.15464757 46.8884509,9.21162295 46.8207151,9.26401062 L46.7386643,9.32469928 C46.0874651,9.78324448 45.1796063,9.8505351 39.9500876,9.85826976 L39.2586996,9.8589592 C39.0202026,9.8590982 38.7735668,9.85915493 38.5184789,9.85915493 L38.5184789,13.675602 L34.0659574,13.675602 L34.0659574,0 L41.378016,0.000557325187 C46.0666698,0.00634192634 46.2333288,0.0707021284 47.0259755,0.766469786 Z M43.607075,3.81644707 L38.5184789,3.81644707 L38.5184789,6.04270786 L43.607075,6.04270786 L43.607075,3.81644707 Z" id="Combined-Shape"></path>
                    <polygon id="Path-0-path" points="51.5580064 0 56.010528 0 56.010528 4.77055884 61.7351986 4.77055884 61.7351986 0 66.1877202 0 66.1877202 13.675602 61.7351986 13.675602 61.7351986 8.90504316 56.010528 8.90504316 56.010528 13.675602 51.5580064 13.675602"></polygon>
                    <path d="M79.8633222,-3.19744231e-14 L82.251782,5.64516129 C83.8006234,9.30895048 84.6370614,11.7101318 84.6338901,13.675602 L80.1813595,13.675602 L79.5452849,11.4493412 L74.0018956,11.6083598 L73.3435585,13.6915039 L69.0500555,13.675602 L69.0977611,12.3811904 C69.1295648,11.592458 70.010528,9.02589732 71.3621864,5.78191731 C72.580269,2.86551567 73.6393331,0.368923217 73.715662,0.238527942 C73.7853273,0.114341966 75.0723325,0.0103488313 79.2195782,0.000726324151 L79.8633222,-3.19744231e-14 L79.8633222,-3.19744231e-14 Z M76.5143899,4.92957746 C76.3808142,5.27941845 76.0786789,6.02998637 75.8401509,6.59927306 L75.4108006,7.63289414 C77.8501464,7.63289414 77.9391968,7.57246706 77.7579156,6.91731031 C77.6466025,6.52294412 77.3794512,5.77237619 77.1600055,5.24761472 C76.7942627,4.37619264 76.737016,4.34756929 76.5143899,4.92957746 Z" id="Combined-Shape"></path>
                    <path d="M26.4330632,16.5379373 L26.4330632,17.4920491 C26.4330632,18.0422535 26.0959437,18.8500682 25.6379701,19.4002726 C24.9478292,20.2271695 24.629792,20.3543844 21.6625044,20.3543844 L21.1918092,22.6601545 C20.9310187,23.9291231 20.5716366,25.7164925 20.0723181,28.3053158 L15.9378338,28.3053158 L16.7202054,24.8864153 C17.1527361,23.0068151 17.5089378,21.2162653 17.5152986,20.9109496 C17.5248397,20.4402544 17.229065,20.3543844 13.711573,20.3543844 L13.8546898,18.8818719 C13.9341991,18.0740572 14.0900373,17.2153567 14.2013504,16.9736483 C14.360369,16.6269877 15.6293376,16.5379373 26.4330632,16.5379373 Z" id="Path-0-path"></path>
                    <path d="M40.5857211,16.6969559 L40.4775884,17.6510677 C40.4171614,18.1758292 40.0609596,18.9295775 39.6824953,19.3303044 C39.0591423,19.9854612 38.7124817,20.052249 35.8946716,20.0458882 C33.3471932,20.0363471 32.7938083,20.1222172 32.7938083,20.513403 C32.7938083,20.8950477 33.2835857,20.9904589 37.7233858,21.0031804 L37.0873113,24.1835529 L34.6225226,24.1771922 C33.2676839,24.1740118 32.0845853,24.3139482 31.9987152,24.4888687 C31.8969433,24.6924125 33.1118456,24.806906 38.8365162,24.806906 L38.6615957,25.9995457 C38.5630042,26.6547024 38.4198874,27.4434348 38.3435585,27.7487506 C38.2131632,28.2512494 37.6756802,28.3053158 32.7938083,28.3053158 C28.2013504,28.3053158 27.387175,28.2321672 27.387175,27.8282599 C27.387175,27.564289 27.8864935,24.9881872 28.5003054,22.1035893 C29.1109369,19.215811 29.6166162,16.7796456 29.6197965,16.6905952 C29.6261573,16.5983644 32.0941264,16.5633803 40.5857211,16.6969559 Z" id="Path-0-path"></path>
                    <path d="M50.3653667,16.5570195 C54.3980791,16.5411177 55.0341536,16.6047251 54.8973976,17.0149932 C54.8083472,17.2757837 54.738379,17.7782826 54.738379,18.1281236 C54.738379,18.4779646 54.3694558,19.0854157 53.9210232,19.4797819 C53.2308824,20.0840527 52.6266116,20.2208087 46.9719092,20.513403 L46.5743626,22.4216265 C46.3580973,23.4711495 46.1736357,24.4379827 46.1640946,24.568378 C46.1577338,24.6987733 47.7256575,24.806906 53.1481927,24.806906 L52.9732722,25.9995457 C52.8746807,26.6547024 52.7315639,27.4434348 52.655235,27.7487506 C52.5280201,28.2480691 52.0255212,28.3053158 47.900578,28.3053158 C43.7120273,28.3053158 43.2317911,28.2480691 42.6529633,27.6692413 C42.2744989,27.2907769 42.0168888,26.6133576 42.02004,25.9995457 C42.02004,25.430259 42.3826316,23.3916402 42.8247034,21.4675148 C43.2667752,19.5433894 43.7788152,17.7751022 43.9632768,17.5365743 C44.1477384,17.2980463 44.605712,16.9863698 44.9841764,16.8400727 C45.3658211,16.6969559 47.7860846,16.569741 50.3653667,16.5570195 Z" id="Path-0-path"></path>
                    <path d="M62.5302918,16.5252158 L62.3108461,17.5651976 C62.1931723,18.1376647 61.9769069,19.0726942 61.57618,20.6883235 L63.8819501,20.6787824 C66.0096193,20.6724216 66.2004417,20.6183553 66.3467388,19.9568378 C66.4357893,19.5624716 66.6202509,18.6687869 67.0082563,16.6969559 L69.062777,16.5920036 C71.0759528,16.4902317 71.1141173,16.5029532 70.9264753,17.2280781 C70.8247034,17.6351658 70.2522363,20.2939573 68.5729996,28.3084961 L66.5852668,28.3053158 C65.4912186,28.3053158 64.6007143,28.1971831 64.6038947,28.0667878 C64.6038947,27.9363925 64.7851759,27.0077238 65.3926271,24.1867333 L60.7810869,24.1708314 L60.1450123,28.3053158 L58.0777702,28.3053158 C56.2649578,28.3053158 56.0296102,28.2385279 56.1600055,27.7487506 C56.2395148,27.4434348 56.7388333,25.1154021 57.2667752,22.5806452 C57.7978974,20.0427079 58.3035766,17.6478873 58.3958074,17.2535211 C58.5484653,16.6079055 58.7551895,16.5379373 62.5302918,16.5252158 Z" id="Path-0-path"></path>
                </g>
            </g>
        </g>
    </g>
</svg>