<svg xmlns="http://www.w3.org/2000/svg" width="11" height="10" viewBox="0 0 11 10">
    <g fill="none" fill-rule="evenodd">
        <g fill="#FFF" fill-rule="nonzero">
            <g>
                <g>
                    <g>
                        <g>
                            <g>
                                <path d="M5.5 2c0 .153-.016.306-.046.457-.013.071.01.145.06.2.053.056.13.089.212.089h4.449c.456 0 .825-.336.825-.75s-.37-.75-.825-.75h-4.45c-.08 0-.158.032-.21.089-.053.056-.075.131-.061.204.03.152.045.306.046.461zM2.75 7c0-.153.016-.306.046-.457.013-.071-.01-.145-.06-.2-.05-.057-.126-.09-.206-.093H.825C.369 6.25 0 6.586 0 7s.37.75.825.75H2.53c.081 0 .159-.032.211-.089.052-.056.075-.131.06-.204-.031-.15-.048-.304-.051-.457zM9.35 7c0 .153-.016.306-.046.457-.013.071.01.145.06.2.053.056.13.089.211.089h.6c.456 0 .825-.336.825-.75s-.37-.75-.825-.75h-.6c-.08 0-.158.032-.21.089-.053.056-.075.131-.061.204.03.152.045.306.046.461zM0 2c0 1.105.985 2 2.2 2 1.215 0 2.2-.895 2.2-2s-.985-2-2.2-2C.985 0 0 .895 0 2zM3.85 7c0 1.105.985 2 2.2 2 1.215 0 2.2-.895 2.2-2s-.985-2-2.2-2c-1.215 0-2.2.895-2.2 2z" transform="translate(-1221 -901) translate(110 886) translate(1090) translate(21 10.5) translate(0 4.5) translate(0 .5)"/>
                            </g>
                        </g>
                    </g>
                </g>
            </g>
        </g>
    </g>
</svg>
