<svg width="65" height="65" viewBox="0 0 66 80" fill="none" xmlns="http://www.w3.org/2000/svg">
    <path d="M48.5705 0C48.7589 0 48.9473 0 49.1463 0C49.6084 5.68615 47.4296 9.93482 44.7815 13.0116C42.1833 16.0671 38.6253 19.0305 32.8708 18.5809C32.4869 12.9762 34.6693 9.0426 37.3138 5.97293C39.7663 3.11216 44.2626 0.56649 48.5705 0Z"
          fill="#fff"/>
    <path d="M65.9908 58.555C65.9908 58.6117 65.9908 58.6613 65.9908 58.7144C64.3736 63.5933 62.0668 67.7747 59.2517 71.6551C56.6819 75.178 53.5327 79.9188 47.9096 79.9188C43.0508 79.9188 39.8234 76.8067 34.8437 76.7217C29.5761 76.6367 26.6793 79.324 21.8631 80.0002C21.3121 80.0002 20.7612 80.0002 20.2209 80.0002C16.6843 79.4904 13.8301 76.7004 11.7508 74.1866C5.61949 66.7585 0.881489 57.1636 0 44.8849C0 43.6811 0 42.4809 0 41.2771C0.373211 32.4894 4.65981 25.3445 10.3575 21.8819C13.3645 20.0408 17.4983 18.4723 22.1012 19.1733C24.0739 19.4778 26.0892 20.1505 27.8558 20.8162C29.5299 21.457 31.6234 22.5935 33.6068 22.5333C34.9503 22.4944 36.2868 21.7969 37.641 21.3048C41.6077 19.8779 45.4962 18.2422 50.6216 19.0105C56.7814 19.9381 61.1533 22.6643 63.8546 26.8705C58.6439 30.1739 54.5244 35.1519 55.2281 43.6528C55.8537 51.3748 60.3607 55.8925 65.9908 58.555Z"
          fill="#fff"/>
</svg>
