<svg width="80" height="80" viewBox="0 0 486 500" fill="none" xmlns="http://www.w3.org/2000/svg">
<path d="M485.421 113.113C485.601 113.78 485.694 114.467 485.695 115.157V222.481C485.695 223.859 485.332 225.212 484.641 226.404C483.951 227.596 482.958 228.584 481.763 229.27L391.684 281.132V383.926C391.684 386.724 390.198 389.306 387.772 390.715L199.74 498.958C199.31 499.202 198.84 499.359 198.371 499.525C198.195 499.584 198.028 499.691 197.843 499.74C196.528 500.087 195.146 500.087 193.832 499.74C193.617 499.682 193.421 499.564 193.216 499.486C192.785 499.33 192.335 499.193 191.925 498.958L3.9322 390.715C2.73794 390.029 1.74563 389.04 1.05528 387.848C0.364936 386.656 0.000946265 385.304 0 383.926L0 61.9554C0 61.2511 0.0978159 60.5664 0.273885 59.9012C0.332574 59.6762 0.469516 59.4708 0.547769 59.2459C0.694493 58.835 0.831435 58.4144 1.04663 58.0329C1.19335 57.7786 1.40855 57.5732 1.58462 57.3384C1.80959 57.0254 2.01501 56.7026 2.27911 56.4288C2.50409 56.2038 2.79754 56.0375 3.05186 55.8419C3.33552 55.6071 3.58984 55.3528 3.91264 55.1669H3.92242L97.9235 1.04537C99.1138 0.360469 100.463 0 101.836 0C103.209 0 104.559 0.360469 105.749 1.04537L199.75 55.1669H199.769C200.082 55.3626 200.347 55.6071 200.63 55.8321C200.885 56.0277 201.168 56.2038 201.393 56.419C201.667 56.7026 201.863 57.0254 202.097 57.3384C202.264 57.5732 202.489 57.7786 202.626 58.0329C202.851 58.4242 202.978 58.835 203.134 59.2459C203.213 59.4708 203.35 59.6762 203.408 59.911C203.588 60.5776 203.68 61.2649 203.682 61.9554V263.055L282.013 217.952V115.148C282.013 114.463 282.111 113.768 282.287 113.113C282.355 112.878 282.483 112.673 282.561 112.448C282.717 112.037 282.854 111.617 283.07 111.235C283.216 110.981 283.431 110.775 283.598 110.541C283.832 110.228 284.028 109.905 284.302 109.631C284.527 109.406 284.811 109.24 285.065 109.044C285.358 108.809 285.613 108.555 285.926 108.369H285.936L379.946 54.2475C381.136 53.5616 382.486 53.2006 383.859 53.2006C385.232 53.2006 386.582 53.5616 387.772 54.2475L481.773 108.369C482.105 108.565 482.36 108.809 482.653 109.034C482.898 109.23 483.181 109.406 483.406 109.621C483.68 109.905 483.876 110.228 484.111 110.541C484.287 110.775 484.502 110.981 484.639 111.235C484.864 111.617 484.991 112.037 485.147 112.448C485.235 112.673 485.363 112.878 485.421 113.113V113.113ZM470.025 217.952V128.705L437.13 147.642L391.684 173.808V263.055L470.035 217.952H470.025ZM376.024 379.397V290.091L331.322 315.621L203.672 388.475V478.622L376.024 379.397ZM15.6701 75.5029V379.397L188.002 478.612V388.485L97.9724 337.532L97.9431 337.513L97.904 337.493C97.6007 337.317 97.3464 337.063 97.0628 336.847C96.8182 336.652 96.5345 336.495 96.3194 336.28L96.2998 336.251C96.0455 336.006 95.8694 335.703 95.6542 335.429C95.4586 335.165 95.2238 334.94 95.0673 334.666L95.0575 334.637C94.8815 334.343 94.7739 333.991 94.6467 333.659C94.5195 333.365 94.3532 333.091 94.275 332.778V332.769C94.1772 332.397 94.1576 332.006 94.1185 331.624C94.0794 331.331 94.0011 331.037 94.0011 330.744V120.606L48.5656 94.4303L15.6701 75.5126V75.5029ZM101.846 16.872L23.5247 61.9554L101.826 107.039L180.138 61.9456L101.826 16.872H101.846ZM142.577 298.23L188.012 272.074V75.5029L155.117 94.44L109.671 120.606V317.177L142.577 298.23ZM383.859 70.0741L305.548 115.157L383.859 160.241L462.161 115.148L383.859 70.0741ZM376.024 173.808L330.579 147.642L297.683 128.705V217.952L343.119 244.108L376.024 263.055V173.808ZM195.828 374.927L310.693 309.351L368.111 276.583L289.858 231.529L199.76 283.401L117.643 330.675L195.828 374.927Z" fill="white"/>
</svg>
