<svg width="454" height="500" viewBox="0 0 454 500" fill="none" xmlns="http://www.w3.org/2000/svg">
<path d="M206.392 5.3343C218.79 -1.76206 234.938 -1.79412 247.325 5.3343C309.643 40.5472 371.981 75.7049 434.288 110.939C446.007 117.54 453.846 130.583 453.727 144.086V355.941C453.814 370.003 445.201 383.357 432.837 389.809C370.723 424.828 308.642 459.889 246.54 494.908C233.886 502.143 217.414 501.586 205.155 493.758C186.533 482.963 167.88 472.221 149.257 461.437C145.451 459.168 141.161 457.363 138.474 453.673C140.85 450.471 145.097 450.072 148.548 448.674C156.321 446.202 163.46 442.235 170.601 438.385C172.407 437.149 174.611 437.623 176.342 438.729C192.266 447.859 208.049 457.254 224.026 466.297C227.434 468.264 230.885 465.652 233.799 464.028C294.751 429.579 355.778 395.26 416.719 360.8C418.977 359.714 420.225 357.317 420.042 354.844C420.085 284.958 420.053 215.059 420.063 145.173C420.321 142.366 418.697 139.786 416.16 138.637C354.262 103.779 292.396 68.8667 230.509 33.9993C229.437 33.2622 228.167 32.8666 226.866 32.8647C225.565 32.8628 224.293 33.2546 223.219 33.9886C161.332 68.8667 99.477 103.811 37.59 138.667C35.0613 139.818 33.3642 142.355 33.6652 145.173C33.6758 215.059 33.6652 284.958 33.6652 354.854C33.5578 356.061 33.8229 357.272 34.4247 358.324C35.0264 359.375 35.936 360.217 37.0308 360.736C53.5457 370.101 70.0819 379.401 86.6074 388.734C95.9172 393.745 107.348 396.722 117.605 392.883C126.657 389.636 133.002 380.4 132.829 370.789C132.914 301.31 132.786 231.821 132.893 162.353C132.667 159.269 135.593 156.721 138.592 157.011C146.527 156.958 154.472 156.904 162.408 157.033C165.72 156.958 167.999 160.279 167.59 163.386C167.558 233.305 167.675 303.225 167.536 373.143C167.558 391.777 159.902 412.053 142.666 421.17C121.432 432.17 95.1871 429.837 74.2097 419.29C56.0494 410.226 38.719 399.529 20.881 389.818C8.48511 383.402 -0.0857249 369.995 0.00153271 355.942V144.086C-0.128463 130.303 8.02211 117.024 20.1064 110.519C82.2089 75.4716 144.301 40.3976 206.392 5.3343Z" fill="white"/>
<path d="M260.57 152.089C287.655 150.346 316.651 151.056 341.025 164.399C359.895 174.625 370.357 196.085 370.69 217.05C370.163 219.877 367.207 221.437 364.508 221.243C356.649 221.233 348.789 221.35 340.93 221.19C337.597 221.318 335.659 218.245 335.241 215.297C332.983 205.266 327.512 195.331 318.071 190.493C303.577 183.236 286.772 183.601 270.967 183.753C259.43 184.365 247.023 185.364 237.249 192.149C229.744 197.288 227.465 207.663 230.143 216.019C232.668 222.018 239.594 223.954 245.26 225.738C277.902 234.275 312.491 233.426 344.51 244.66C357.766 249.241 370.733 258.144 375.271 272.024C381.206 290.626 378.604 312.86 365.369 327.794C354.637 340.083 339.005 346.771 323.415 350.404C302.674 355.029 281.15 355.146 260.087 353.093C240.281 350.835 219.671 345.632 204.381 332.137C191.307 320.785 184.921 303.096 185.555 286.024C185.706 283.141 188.577 281.131 191.339 281.367C199.252 281.303 207.166 281.282 215.08 281.378C218.241 281.152 220.584 283.884 220.746 286.863C222.206 296.42 225.798 306.451 234.132 312.118C250.216 322.494 270.398 321.784 288.814 322.074C304.072 321.397 321.199 321.192 333.65 311.108C340.22 305.356 342.166 295.733 340.391 287.454C338.467 280.465 331.156 277.207 324.877 275.078C292.654 264.885 257.678 268.583 225.766 257.056C212.811 252.478 200.283 243.822 195.306 230.512C188.361 211.675 191.543 188.376 206.165 173.946C220.422 159.593 241.002 154.066 260.57 152.087V152.089Z" fill="white"/>
</svg>
